<svg width="16" height="16" viewBox="0 0 16 16" fill="none" xmlns="http://www.w3.org/2000/svg">
<path d="M12.3131 15C12.2079 15.0004 12.1052 14.9676 12.0197 14.9062L8.00064 11.9925L3.98158 14.9062C3.89571 14.9685 3.79227 15.0019 3.6862 15.0015C3.58012 15.0011 3.47692 14.967 3.39151 14.9041C3.3061 14.8412 3.24291 14.7528 3.21107 14.6516C3.17923 14.5504 3.18039 14.4417 3.21439 14.3412L4.78189 9.69843L0.719389 6.91249C0.631393 6.85221 0.564978 6.76537 0.529849 6.66466C0.49472 6.56395 0.492718 6.45465 0.524134 6.35271C0.555551 6.25078 0.618741 6.16157 0.704471 6.09811C0.790201 6.03465 0.893978 6.00027 1.00064 5.99999H6.01252L7.52501 1.3453C7.5576 1.24481 7.62117 1.15722 7.70662 1.0951C7.79207 1.03297 7.895 0.999512 8.00064 0.999512C8.10628 0.999512 8.20921 1.03297 8.29466 1.0951C8.38011 1.15722 8.44368 1.24481 8.47627 1.3453L9.98876 6.00155H15.0006C15.1074 6.0015 15.2114 6.03564 15.2974 6.09898C15.3834 6.16232 15.4469 6.25152 15.4785 6.35353C15.5101 6.45554 15.5082 6.56499 15.4731 6.66586C15.438 6.76672 15.3716 6.8537 15.2835 6.91405L11.2194 9.69843L12.786 14.34C12.8113 14.4151 12.8185 14.4952 12.8068 14.5737C12.7951 14.6521 12.7649 14.7267 12.7187 14.7912C12.6725 14.8557 12.6116 14.9082 12.5411 14.9445C12.4706 14.9808 12.3925 14.9998 12.3131 15Z" fill="url(#paint0_linear_4641_34950)"/>
<defs>
<linearGradient id="paint0_linear_4641_34950" x1="2.33398" y1="2" x2="12.334" y2="15.3333" gradientUnits="userSpaceOnUse">
<stop stop-color="#F84119"/>
<stop offset="1" stop-color="#F89F19" stop-opacity="0.68"/>
</linearGradient>
</defs>
</svg>
